<svg xmlns="http://www.w3.org/2000/svg" xmlns:svg="http://www.w3.org/2000/svg" xmlns:xlink="http://www.w3.org/1999/xlink" id="svg4043" width="1052.36" height="15" version="1.1"><defs id="defs4045"><linearGradient id="linearGradient3831"><stop id="stop3833" offset="0" stop-color="#e3f4fc" stop-opacity="1"/><stop id="stop3835" offset="1" stop-color="#d6eefb" stop-opacity="1"/></linearGradient><linearGradient id="linearGradient3853" x1="6.922" x2="12.978" y1="9.232" y2="9.232" gradientUnits="userSpaceOnUse" xlink:href="#linearGradient3839"/><linearGradient id="linearGradient3839"><stop id="stop3841" offset="0" stop-color="#a9dbf6" stop-opacity="1"/><stop id="stop3843" offset="1" stop-color="#a4d5ef" stop-opacity="1"/></linearGradient><linearGradient id="linearGradient4200" x1=".799" x2="7.055" y1="9.232" y2="9.232" gradientTransform="matrix(0.9680851,0,0,1,0.22515704,0)" gradientUnits="userSpaceOnUse" xlink:href="#linearGradient3831-8"/><linearGradient id="linearGradient3831-8"><stop id="stop3833-9" offset="0" stop-color="#f6f6f6" stop-opacity="1"/><stop id="stop3835-9" offset="1" stop-color="#ececed" stop-opacity="1"/></linearGradient><linearGradient id="linearGradient4202" x1="6.922" x2="12.978" y1="9.232" y2="9.232" gradientUnits="userSpaceOnUse" xlink:href="#linearGradient3839-6"/><linearGradient id="linearGradient3839-6"><stop id="stop3841-1" offset="0" stop-color="#dedee0" stop-opacity="1"/><stop id="stop3843-9" offset="1" stop-color="#c8c8cc" stop-opacity="1"/></linearGradient><linearGradient id="linearGradient4344" x1="6.922" x2="12.978" y1="9.232" y2="9.232" gradientTransform="matrix(1.2504574,0,0,77.506803,1036.1733,-1241.7121)" gradientUnits="userSpaceOnUse" xlink:href="#linearGradient3839-6"/><linearGradient id="linearGradient4347" x1=".799" x2="7.055" y1="9.232" y2="9.232" gradientTransform="matrix(1.2105492,0,0,77.506803,1036.4548,-1241.7121)" gradientUnits="userSpaceOnUse" xlink:href="#linearGradient3831-8"/><linearGradient id="linearGradient3372" x1="6.922" x2="12.978" y1="9.232" y2="9.232" gradientTransform="matrix(1.2504574,0,0,77.506803,-1.1889,-1241.7121)" gradientUnits="userSpaceOnUse" xlink:href="#linearGradient3839-6"/><linearGradient id="linearGradient3375" x1=".799" x2="7.055" y1="9.232" y2="9.232" gradientTransform="matrix(1.2105492,0,0,77.506803,-0.9074,-1241.7121)" gradientUnits="userSpaceOnUse" xlink:href="#linearGradient3831-8"/></defs><metadata id="metadata4048"/><rect id="rect3827-3" width="7.573" height="1052.34" x=".059" y="-1052.318" fill="url(#linearGradient3375)" fill-opacity="1" stroke="none" transform="matrix(0,1,-1,0,0,0)"/><rect id="rect3829-4" width="7.573" height="1052.341" x="7.467" y="-1052.318" fill="url(#linearGradient3372)" fill-opacity="1" stroke="none" transform="matrix(0,1,-1,0,0,0)"/><g id="g3380"><path id="path3975-8" fill="#4d4d4d" stroke="none" d="m 530.72191,4.451 0.57881,0 0,3.2356 0,3.2356 -0.57881,0 -0.57882,0 0,-3.2356 0,-3.2356 0.57882,0 z"/><path id="path3979-7" fill="#4d4d4d" stroke="none" d="m 523.65635,4.451 0.57882,0 0,3.2356 0,3.2356 -0.57882,0 -0.57882,0 0,-3.2356 0,-3.2356 0.57882,0 z"/><path id="path3977-7" fill="#4d4d4d" stroke="none" d="m 527.16917,4.451 0.57882,0 0,3.2356 0,3.2356 -0.57882,0 -0.57882,0 0,-3.2356 0,-3.2356 0.57882,0 z"/></g></svg>