<svg xmlns="http://www.w3.org/2000/svg" xmlns:svg="http://www.w3.org/2000/svg" xmlns:xlink="http://www.w3.org/1999/xlink" id="svg4043" width="1052.36" height="15" version="1.1"><defs id="defs4045"><linearGradient id="linearGradient3851" x1=".799" x2="7.055" y1="9.232" y2="9.232" gradientTransform="matrix(0.9680851,0,0,1,0.22515704,0)" gradientUnits="userSpaceOnUse" xlink:href="#linearGradient3831"/><linearGradient id="linearGradient3831"><stop id="stop3833" offset="0" stop-color="#e3f4fc" stop-opacity="1"/><stop id="stop3835" offset="1" stop-color="#d6eefb" stop-opacity="1"/></linearGradient><linearGradient id="linearGradient3853" x1="6.922" x2="12.978" y1="9.232" y2="9.232" gradientUnits="userSpaceOnUse" xlink:href="#linearGradient3839"/><linearGradient id="linearGradient3839"><stop id="stop3841" offset="0" stop-color="#a9dbf6" stop-opacity="1"/><stop id="stop3843" offset="1" stop-color="#a4d5ef" stop-opacity="1"/></linearGradient><linearGradient id="linearGradient4076" x1="6.922" x2="12.978" y1="9.232" y2="9.232" gradientUnits="userSpaceOnUse" xlink:href="#linearGradient3839"/><linearGradient id="linearGradient4386" x1="6.922" x2="12.978" y1="9.232" y2="9.232" gradientTransform="matrix(1.2504574,0,0,77.506803,1036.1541,-1241.7619)" gradientUnits="userSpaceOnUse" xlink:href="#linearGradient3839"/><linearGradient id="linearGradient4389" x1=".799" x2="7.055" y1="9.232" y2="9.232" gradientTransform="matrix(1.2105492,0,0,77.506803,1036.4356,-1241.7619)" gradientUnits="userSpaceOnUse" xlink:href="#linearGradient3831"/></defs><metadata id="metadata4048"/><g id="layer1" transform="translate(0,-1037.3622)"><rect id="rect3827" width="7.573" height="1052.34" x="1037.402" y="-1052.368" fill="url(#linearGradient4389)" fill-opacity="1" stroke="none" transform="matrix(0,1,-1,0,0,0)"/><rect id="rect3829" width="7.573" height="1052.341" x="1044.81" y="-1052.368" fill="url(#linearGradient4386)" fill-opacity="1" stroke="none" transform="matrix(0,1,-1,0,0,0)"/><g id="g3385"><path id="path3975-8" fill="#4d4d4d" stroke="none" d="m 530.72191,1041.8132 0.57881,0 0,3.2356 0,3.2356 -0.57881,0 -0.57882,0 0,-3.2356 0,-3.2356 0.57882,0 z"/><path id="path3979-7" fill="#4d4d4d" stroke="none" d="m 523.65635,1041.8132 0.57882,0 0,3.2356 0,3.2356 -0.57882,0 -0.57882,0 0,-3.2356 0,-3.2356 0.57882,0 z"/><path id="path3977-7" fill="#4d4d4d" stroke="none" d="m 527.16917,1041.8132 0.57882,0 0,3.2356 0,3.2356 -0.57882,0 -0.57882,0 0,-3.2356 0,-3.2356 0.57882,0 z"/></g></g></svg>