<svg xmlns="http://www.w3.org/2000/svg" xmlns:svg="http://www.w3.org/2000/svg" xmlns:xlink="http://www.w3.org/1999/xlink" id="svg2" width="15" height="1052.36" version="1.1"><defs id="defs4"><linearGradient id="linearGradient3839"><stop id="stop3841" offset="0" stop-color="#dedee0" stop-opacity="1"/><stop id="stop3843" offset="1" stop-color="#c8c8cc" stop-opacity="1"/></linearGradient><linearGradient id="linearGradient3831"><stop id="stop3833" offset="0" stop-color="#f6f6f6" stop-opacity="1"/><stop id="stop3835" offset="1" stop-color="#ececed" stop-opacity="1"/></linearGradient><linearGradient id="linearGradient3821"><stop id="stop3823" offset="0" stop-color="#d9d9d9" stop-opacity="1"/><stop id="stop3825" offset="1" stop-color="#ccc" stop-opacity="1"/></linearGradient><linearGradient id="linearGradient3777"><stop id="stop3779" offset="0" stop-color="#fff" stop-opacity="1"/><stop id="stop3781" offset="1" stop-color="#bfbfbf" stop-opacity="1"/></linearGradient><linearGradient id="linearGradient3783-5" x1="-.026" x2="15.059" y1="32.926" y2="32.926" gradientTransform="matrix(0.45777259,0,0,1,-0.21327211,-1.6638963)" gradientUnits="userSpaceOnUse" xlink:href="#linearGradient3777-7"/><linearGradient id="linearGradient3777-7"><stop id="stop3779-0" offset="0" stop-color="#fff" stop-opacity="1"/><stop id="stop3781-6" offset="1" stop-color="#bfbfbf" stop-opacity="1"/></linearGradient><linearGradient id="linearGradient3851" x1=".799" x2="7.055" y1="9.232" y2="9.232" gradientTransform="matrix(0.9680851,0,0,1,0.22515704,0)" gradientUnits="userSpaceOnUse" xlink:href="#linearGradient3831"/><linearGradient id="linearGradient3853" x1="6.922" x2="12.978" y1="9.232" y2="9.232" gradientUnits="userSpaceOnUse" xlink:href="#linearGradient3839"/><linearGradient id="linearGradient3403" x1="6.922" x2="12.978" y1="9.232" y2="9.232" gradientTransform="matrix(1.2504574,0,0,77.506803,-1.1866198,-189.46837)" gradientUnits="userSpaceOnUse" xlink:href="#linearGradient3839"/><linearGradient id="linearGradient3406" x1=".799" x2="7.055" y1="9.232" y2="9.232" gradientTransform="matrix(1.2105492,0,0,77.506803,-0.90507051,-189.46837)" gradientUnits="userSpaceOnUse" xlink:href="#linearGradient3831"/></defs><metadata id="metadata7"/><g id="layer1" transform="translate(0,-0.00218262)"><rect id="rect3827" width="7.573" height="1052.34" x=".062" y="-.074" fill="url(#linearGradient3406)" fill-opacity="1" stroke="none"/><rect id="rect3829" width="7.573" height="1052.341" x="7.469" y="-.074" fill="url(#linearGradient3403)" fill-opacity="1" stroke="none"/><g id="g3408"><g id="g3981" transform="matrix(1.2986458,0,0,1.1775927,4.4686605,520.95096)"><path id="path3975" fill="#4d4d4d" stroke="none" d="m -0.01186441,0.48474576 0,-0.49152542 2.49152541,0 2.4915254,0 0,0.49152542 0,0.49152543 -2.4915254,0 -2.49152541,0 0,-0.49152543 z"/><path id="path3979" fill="#4d4d4d" stroke="none" d="m -0.01186441,6.4847458 0,-0.4915255 2.49152541,0 2.4915254,0 0,0.4915255 0,0.4915254 -2.4915254,0 -2.49152541,0 0,-0.4915254 z"/><path id="path3977" fill="#4d4d4d" stroke="none" d="m -0.01186441,3.5016949 0,-0.4915254 2.49152541,0 2.4915254,0 0,0.4915254 0,0.4915254 -2.4915254,0 -2.49152541,0 0,-0.4915254 z"/></g></g></g></svg>